<?xml version="1.0" encoding="UTF-8" standalone="no"?>
<!DOCTYPE svg PUBLIC "-//W3C//DTD SVG 1.1//EN" "http://www.w3.org/Graphics/SVG/1.1/DTD/svg11.dtd">
<svg width="100%" height="100%" viewBox="0 0 1211 219" version="1.1" xmlns="http://www.w3.org/2000/svg" xmlns:xlink="http://www.w3.org/1999/xlink" xml:space="preserve" xmlns:serif="http://www.serif.com/" style="fill-rule:evenodd;clip-rule:evenodd;stroke-linejoin:round;stroke-miterlimit:2;">
    <g transform="matrix(1,0,0,1,-11635.2,-1118)">
        <g id="lists-example-4" serif:id="lists example 4" transform="matrix(1.54473,0,0,0.679442,-8179.38,1118)">
            <rect x="12827.2" y="0" width="783.874" height="321.315" style="fill:none;"/>
            <g transform="matrix(0.647362,0,0,1.4718,5917.89,-149.622)">
                <path d="M10781,133.315C10810.4,133.315 10834.3,157.217 10834.3,186.657C10834.3,216.098 10810.4,240 10781,240C10751.6,240 10727.7,216.098 10727.7,186.657C10727.7,157.217 10751.6,133.315 10781,133.315ZM10781,139.565C10755,139.565 10733.9,160.666 10733.9,186.657C10733.9,212.649 10755,233.75 10781,233.75C10807,233.75 10828.1,212.649 10828.1,186.657C10828.1,160.666 10807,139.565 10781,139.565Z"/>
            </g>
            <g transform="matrix(0.647362,0,0,1.4718,6009.81,-149.622)">
                <path d="M10781,133.315C10810.4,133.315 10834.3,157.217 10834.3,186.657C10834.3,216.098 10810.4,240 10781,240C10751.6,240 10727.7,216.098 10727.7,186.657C10727.7,157.217 10751.6,133.315 10781,133.315ZM10781,139.565C10755,139.565 10733.9,160.666 10733.9,186.657C10733.9,212.649 10755,233.75 10781,233.75C10807,233.75 10828.1,212.649 10828.1,186.657C10828.1,160.666 10807,139.565 10781,139.565Z"/>
            </g>
            <g transform="matrix(0.647362,0,0,1.4718,6101.74,-149.622)">
                <path d="M10781,133.315C10810.4,133.315 10834.3,157.217 10834.3,186.657C10834.3,216.098 10810.4,240 10781,240C10751.6,240 10727.7,216.098 10727.7,186.657C10727.7,157.217 10751.6,133.315 10781,133.315ZM10781,139.565C10755,139.565 10733.9,160.666 10733.9,186.657C10733.9,212.649 10755,233.75 10781,233.75C10807,233.75 10828.1,212.649 10828.1,186.657C10828.1,160.666 10807,139.565 10781,139.565Z"/>
            </g>
            <g transform="matrix(0.647362,0,0,1.4718,6193.66,-149.622)">
                <path d="M10781,133.315C10810.4,133.315 10834.3,157.217 10834.3,186.657C10834.3,216.098 10810.4,240 10781,240C10751.6,240 10727.7,216.098 10727.7,186.657C10727.7,157.217 10751.6,133.315 10781,133.315ZM10781,139.565C10755,139.565 10733.9,160.666 10733.9,186.657C10733.9,212.649 10755,233.75 10781,233.75C10807,233.75 10828.1,212.649 10828.1,186.657C10828.1,160.666 10807,139.565 10781,139.565Z"/>
            </g>
            <g transform="matrix(0.647362,0,0,1.4718,6285.59,-149.622)">
                <path d="M10781,133.315C10810.4,133.315 10834.3,157.217 10834.3,186.657C10834.3,216.098 10810.4,240 10781,240C10751.6,240 10727.7,216.098 10727.7,186.657C10727.7,157.217 10751.6,133.315 10781,133.315ZM10781,139.565C10755,139.565 10733.9,160.666 10733.9,186.657C10733.9,212.649 10755,233.75 10781,233.75C10807,233.75 10828.1,212.649 10828.1,186.657C10828.1,160.666 10807,139.565 10781,139.565Z"/>
            </g>
            <g transform="matrix(0.647362,0,0,1.4718,6469.42,-149.622)">
                <path d="M10781,133.315C10810.4,133.315 10834.3,157.217 10834.3,186.657C10834.3,216.098 10810.4,240 10781,240C10751.6,240 10727.7,216.098 10727.7,186.657C10727.7,157.217 10751.6,133.315 10781,133.315ZM10781,139.565C10755,139.565 10733.9,160.666 10733.9,186.657C10733.9,212.649 10755,233.75 10781,233.75C10807,233.75 10828.1,212.649 10828.1,186.657C10828.1,160.666 10807,139.565 10781,139.565Z"/>
            </g>
            <g transform="matrix(0.647362,0,0,1.4718,6561.35,-149.622)">
                <path d="M10781,133.315C10810.4,133.315 10834.3,157.217 10834.3,186.657C10834.3,216.098 10810.4,240 10781,240C10751.6,240 10727.7,216.098 10727.7,186.657C10727.7,157.217 10751.6,133.315 10781,133.315ZM10781,139.565C10755,139.565 10733.9,160.666 10733.9,186.657C10733.9,212.649 10755,233.75 10781,233.75C10807,233.75 10828.1,212.649 10828.1,186.657C10828.1,160.666 10807,139.565 10781,139.565Z"/>
            </g>
            <g transform="matrix(0.647362,0,0,1.4718,6377.51,-149.622)">
                <path d="M10781,133.315C10810.4,133.315 10834.3,157.217 10834.3,186.657C10834.3,216.098 10810.4,240 10781,240C10751.6,240 10727.7,216.098 10727.7,186.657C10727.7,157.217 10751.6,133.315 10781,133.315ZM10781,139.565C10755,139.565 10733.9,160.666 10733.9,186.657C10733.9,212.649 10755,233.75 10781,233.75C10807,233.75 10828.1,212.649 10828.1,186.657C10828.1,160.666 10807,139.565 10781,139.565Z"/>
            </g>
            <g transform="matrix(0.647362,0,0,1.4718,5917.87,-150.624)">
                <g transform="matrix(54.1667,0,0,54.1667,10794.8,206.97)">
                </g>
                <text x="10767.2px" y="206.97px" style="font-family:'Roboto-Black', 'Roboto';font-weight:900;font-size:54.167px;">?</text>
            </g>
            <g transform="matrix(0.647362,0,0,1.4718,6009.8,-150.624)">
                <g transform="matrix(54.1667,0,0,54.1667,10796.7,206.97)">
                </g>
                <text x="10765.3px" y="206.97px" style="font-family:'Roboto-Black', 'Roboto';font-weight:900;font-size:54.167px;">2</text>
            </g>
            <g transform="matrix(0.647362,0,0,1.4718,6101.72,-150.624)">
                <g transform="matrix(54.1667,0,0,54.1667,10794.8,206.97)">
                </g>
                <text x="10767.2px" y="206.97px" style="font-family:'Roboto-Black', 'Roboto';font-weight:900;font-size:54.167px;">?</text>
            </g>
            <g transform="matrix(0.647362,0,0,1.4718,6193.65,-150.624)">
                <g transform="matrix(54.1667,0,0,54.1667,10794.8,206.97)">
                </g>
                <text x="10767.2px" y="206.97px" style="font-family:'Roboto-Black', 'Roboto';font-weight:900;font-size:54.167px;">?</text>
            </g>
            <g transform="matrix(0.647362,0,0,1.4718,6285.57,-150.624)">
                <g transform="matrix(54.1667,0,0,54.1667,10794.8,206.97)">
                </g>
                <text x="10767.2px" y="206.97px" style="font-family:'Roboto-Black', 'Roboto';font-weight:900;font-size:54.167px;">?</text>
            </g>
            <g transform="matrix(0.647362,0,0,1.4718,6469.41,-150.624)">
                <g transform="matrix(54.1667,0,0,54.1667,10794.8,206.97)">
                </g>
                <text x="10767.2px" y="206.97px" style="font-family:'Roboto-Black', 'Roboto';font-weight:900;font-size:54.167px;">?</text>
            </g>
            <g transform="matrix(0.647362,0,0,1.4718,6561.33,-150.624)">
                <g transform="matrix(54.1667,0,0,54.1667,10794.8,206.97)">
                </g>
                <text x="10767.2px" y="206.97px" style="font-family:'Roboto-Black', 'Roboto';font-weight:900;font-size:54.167px;">?</text>
            </g>
            <g transform="matrix(0.647362,0,0,1.4718,6377.5,-184.616)">
                <g transform="matrix(54.1667,0,0,54.1667,10812.4,229.593)">
                </g>
                <text x="10749.6px" y="229.593px" style="font-family:'Roboto-Black', 'Roboto';font-weight:900;font-size:54.167px;">18</text>
            </g>
            <g transform="matrix(0.647362,0,0,1.4718,5917.89,-603.468)">
                <g transform="matrix(41.6667,0,0,41.6667,10795.2,592.966)">
                </g>
                <text x="10766.8px" y="592.966px" style="font-family:'Roboto-Black', 'Roboto';font-weight:900;font-size:41.667px;">A</text>
            </g>
            <g transform="matrix(0.647362,0,0,1.4718,6104.3,-603.468)">
                <g transform="matrix(41.6667,0,0,41.6667,10794.4,592.966)">
                </g>
                <text x="10767.5px" y="592.966px" style="font-family:'Roboto-Black', 'Roboto';font-weight:900;font-size:41.667px;">B</text>
            </g>
            <g transform="matrix(0.647362,0,0,1.4718,6193.66,-603.468)">
                <g transform="matrix(41.6667,0,0,41.6667,10794.6,592.966)">
                </g>
                <text x="10767.3px" y="592.966px" style="font-family:'Roboto-Black', 'Roboto';font-weight:900;font-size:41.667px;">C</text>
            </g>
            <g transform="matrix(0.647362,0,0,1.4718,6285.6,-603.468)">
                <g transform="matrix(41.6667,0,0,41.6667,10794.4,592.966)">
                </g>
                <text x="10767.5px" y="592.966px" style="font-family:'Roboto-Black', 'Roboto';font-weight:900;font-size:41.667px;">D</text>
            </g>
            <g transform="matrix(0.647362,0,0,1.4718,6469.44,-603.468)">
                <g transform="matrix(41.6667,0,0,41.6667,10792.6,592.966)">
                </g>
                <text x="10769.3px" y="592.966px" style="font-family:'Roboto-Black', 'Roboto';font-weight:900;font-size:41.667px;">E</text>
            </g>
            <g transform="matrix(0.647362,0,0,1.4718,6561.36,-603.468)">
                <g transform="matrix(41.6667,0,0,41.6667,10792.4,592.966)">
                </g>
                <text x="10769.6px" y="592.966px" style="font-family:'Roboto-Black', 'Roboto';font-weight:900;font-size:41.667px;">F</text>
            </g>
        </g>
    </g>
</svg>
