<?xml version="1.0" encoding="UTF-8" standalone="no"?>
<!DOCTYPE svg PUBLIC "-//W3C//DTD SVG 1.1//EN" "http://www.w3.org/Graphics/SVG/1.1/DTD/svg11.dtd">
<svg width="100%" height="100%" viewBox="0 0 784 322" version="1.1" xmlns="http://www.w3.org/2000/svg" xmlns:xlink="http://www.w3.org/1999/xlink" xml:space="preserve" xmlns:serif="http://www.serif.com/" style="fill-rule:evenodd;clip-rule:evenodd;stroke-linejoin:round;stroke-miterlimit:2;">
    <g transform="matrix(1,0,0,1,-10677,-26)">
        <g id="Lists-Demo" serif:id="Lists Demo" transform="matrix(0.341725,0,0,0.232615,6293.62,26)">
            <rect x="12827.2" y="0" width="2293.87" height="1381.32" style="fill:none;"/>
            <g transform="matrix(2.92633,0,0,4.29894,-18417.2,-111.773)">
                <path d="M10781,133.315C10810.4,133.315 10834.3,157.217 10834.3,186.657C10834.3,216.098 10810.4,240 10781,240C10751.6,240 10727.7,216.098 10727.7,186.657C10727.7,157.217 10751.6,133.315 10781,133.315ZM10781,139.565C10755,139.565 10733.9,160.666 10733.9,186.657C10733.9,212.649 10755,233.75 10781,233.75C10807,233.75 10828.1,212.649 10828.1,186.657C10828.1,160.666 10807,139.565 10781,139.565Z"/>
            </g>
            <g transform="matrix(2.92633,0,0,4.29894,-18001.7,-111.773)">
                <path d="M10781,133.315C10810.4,133.315 10834.3,157.217 10834.3,186.657C10834.3,216.098 10810.4,240 10781,240C10751.6,240 10727.7,216.098 10727.7,186.657C10727.7,157.217 10751.6,133.315 10781,133.315ZM10781,139.565C10755,139.565 10733.9,160.666 10733.9,186.657C10733.9,212.649 10755,233.75 10781,233.75C10807,233.75 10828.1,212.649 10828.1,186.657C10828.1,160.666 10807,139.565 10781,139.565Z"/>
            </g>
            <g transform="matrix(2.92633,0,0,4.29894,-17586.1,-111.773)">
                <path d="M10781,133.315C10810.4,133.315 10834.3,157.217 10834.3,186.657C10834.3,216.098 10810.4,240 10781,240C10751.6,240 10727.7,216.098 10727.7,186.657C10727.7,157.217 10751.6,133.315 10781,133.315ZM10781,139.565C10755,139.565 10733.9,160.666 10733.9,186.657C10733.9,212.649 10755,233.75 10781,233.75C10807,233.75 10828.1,212.649 10828.1,186.657C10828.1,160.666 10807,139.565 10781,139.565Z"/>
            </g>
            <g transform="matrix(2.92633,0,0,4.29894,-17170.6,-111.773)">
                <path d="M10781,133.315C10810.4,133.315 10834.3,157.217 10834.3,186.657C10834.3,216.098 10810.4,240 10781,240C10751.6,240 10727.7,216.098 10727.7,186.657C10727.7,157.217 10751.6,133.315 10781,133.315ZM10781,139.565C10755,139.565 10733.9,160.666 10733.9,186.657C10733.9,212.649 10755,233.75 10781,233.75C10807,233.75 10828.1,212.649 10828.1,186.657C10828.1,160.666 10807,139.565 10781,139.565Z"/>
            </g>
            <g transform="matrix(2.92633,0,0,4.29894,-16755.1,-111.773)">
                <path d="M10781,133.315C10810.4,133.315 10834.3,157.217 10834.3,186.657C10834.3,216.098 10810.4,240 10781,240C10751.6,240 10727.7,216.098 10727.7,186.657C10727.7,157.217 10751.6,133.315 10781,133.315ZM10781,139.565C10755,139.565 10733.9,160.666 10733.9,186.657C10733.9,212.649 10755,233.75 10781,233.75C10807,233.75 10828.1,212.649 10828.1,186.657C10828.1,160.666 10807,139.565 10781,139.565Z"/>
            </g>
            <g transform="matrix(2.92633,0,0,4.29894,-18417.3,-114.701)">
                <g transform="matrix(54.1667,0,0,54.1667,10794.8,206.97)">
                </g>
                <text x="10767.2px" y="206.97px" style="font-family:'Roboto-Black', 'Roboto';font-weight:900;font-size:54.167px;">?</text>
            </g>
            <g transform="matrix(2.92633,0,0,4.29894,-18001.7,-114.701)">
                <g transform="matrix(54.1667,0,0,54.1667,10794.8,206.97)">
                </g>
                <text x="10767.2px" y="206.97px" style="font-family:'Roboto-Black', 'Roboto';font-weight:900;font-size:54.167px;">?</text>
            </g>
            <g transform="matrix(2.92633,0,0,4.29894,-17586.2,-114.701)">
                <g transform="matrix(54.1667,0,0,54.1667,10796.7,206.97)">
                </g>
                <text x="10765.3px" y="206.97px" style="font-family:'Roboto-Black', 'Roboto';font-weight:900;font-size:54.167px;">4</text>
            </g>
            <g transform="matrix(2.92633,0,0,4.29894,-17170.7,-114.701)">
                <g transform="matrix(54.1667,0,0,54.1667,10796.7,206.97)">
                </g>
                <text x="10765.3px" y="206.97px" style="font-family:'Roboto-Black', 'Roboto';font-weight:900;font-size:54.167px;">7</text>
            </g>
            <g transform="matrix(2.92633,0,0,4.29894,-16755.1,-114.701)">
                <g transform="matrix(54.1667,0,0,54.1667,10794.8,206.97)">
                </g>
                <text x="10767.2px" y="206.97px" style="font-family:'Roboto-Black', 'Roboto';font-weight:900;font-size:54.167px;">?</text>
            </g>
        </g>
    </g>
</svg>
