<?xml version="1.0" encoding="UTF-8" standalone="no"?>
<!DOCTYPE svg PUBLIC "-//W3C//DTD SVG 1.1//EN" "http://www.w3.org/Graphics/SVG/1.1/DTD/svg11.dtd">
<svg width="100%" height="100%" viewBox="0 0 941 208" version="1.1" xmlns="http://www.w3.org/2000/svg" xmlns:xlink="http://www.w3.org/1999/xlink" xml:space="preserve" xmlns:serif="http://www.serif.com/" style="fill-rule:evenodd;clip-rule:evenodd;stroke-linejoin:round;stroke-miterlimit:2;">
    <g transform="matrix(1,0,0,1,-12463.9,-777)">
        <g id="lists-example-5" serif:id="lists example 5" transform="matrix(1.20029,0,0,0.645208,-2932.41,777)">
            <rect x="12827.2" y="0" width="783.874" height="321.315" style="fill:none;"/>
            <g transform="matrix(0.833134,0,0,1.54989,3935.14,-149.811)">
                <path d="M10781,133.315C10810.4,133.315 10834.3,157.217 10834.3,186.657C10834.3,216.098 10810.4,240 10781,240C10751.6,240 10727.7,216.098 10727.7,186.657C10727.7,157.217 10751.6,133.315 10781,133.315ZM10781,139.565C10755,139.565 10733.9,160.666 10733.9,186.657C10733.9,212.649 10755,233.75 10781,233.75C10807,233.75 10828.1,212.649 10828.1,186.657C10828.1,160.666 10807,139.565 10781,139.565Z"/>
            </g>
            <g transform="matrix(0.833134,0,0,1.54989,4053.44,-149.811)">
                <path d="M10781,133.315C10810.4,133.315 10834.3,157.217 10834.3,186.657C10834.3,216.098 10810.4,240 10781,240C10751.6,240 10727.7,216.098 10727.7,186.657C10727.7,157.217 10751.6,133.315 10781,133.315ZM10781,139.565C10755,139.565 10733.9,160.666 10733.9,186.657C10733.9,212.649 10755,233.75 10781,233.75C10807,233.75 10828.1,212.649 10828.1,186.657C10828.1,160.666 10807,139.565 10781,139.565Z"/>
            </g>
            <g transform="matrix(0.833134,0,0,1.54989,4171.75,-149.811)">
                <path d="M10781,133.315C10810.4,133.315 10834.3,157.217 10834.3,186.657C10834.3,216.098 10810.4,240 10781,240C10751.6,240 10727.7,216.098 10727.7,186.657C10727.7,157.217 10751.6,133.315 10781,133.315ZM10781,139.565C10755,139.565 10733.9,160.666 10733.9,186.657C10733.9,212.649 10755,233.75 10781,233.75C10807,233.75 10828.1,212.649 10828.1,186.657C10828.1,160.666 10807,139.565 10781,139.565Z"/>
            </g>
            <g transform="matrix(0.833134,0,0,1.54989,4290.05,-149.811)">
                <path d="M10781,133.315C10810.4,133.315 10834.3,157.217 10834.3,186.657C10834.3,216.098 10810.4,240 10781,240C10751.6,240 10727.7,216.098 10727.7,186.657C10727.7,157.217 10751.6,133.315 10781,133.315ZM10781,139.565C10755,139.565 10733.9,160.666 10733.9,186.657C10733.9,212.649 10755,233.75 10781,233.75C10807,233.75 10828.1,212.649 10828.1,186.657C10828.1,160.666 10807,139.565 10781,139.565Z"/>
            </g>
            <g transform="matrix(0.833134,0,0,1.54989,4408.36,-149.811)">
                <path d="M10781,133.315C10810.4,133.315 10834.3,157.217 10834.3,186.657C10834.3,216.098 10810.4,240 10781,240C10751.6,240 10727.7,216.098 10727.7,186.657C10727.7,157.217 10751.6,133.315 10781,133.315ZM10781,139.565C10755,139.565 10733.9,160.666 10733.9,186.657C10733.9,212.649 10755,233.75 10781,233.75C10807,233.75 10828.1,212.649 10828.1,186.657C10828.1,160.666 10807,139.565 10781,139.565Z"/>
            </g>
            <g transform="matrix(0.833134,0,0,1.54989,4526.66,-149.811)">
                <path d="M10781,133.315C10810.4,133.315 10834.3,157.217 10834.3,186.657C10834.3,216.098 10810.4,240 10781,240C10751.6,240 10727.7,216.098 10727.7,186.657C10727.7,157.217 10751.6,133.315 10781,133.315ZM10781,139.565C10755,139.565 10733.9,160.666 10733.9,186.657C10733.9,212.649 10755,233.75 10781,233.75C10807,233.75 10828.1,212.649 10828.1,186.657C10828.1,160.666 10807,139.565 10781,139.565Z"/>
            </g>
            <g transform="matrix(0.833134,0,0,1.54989,3935.12,-150.867)">
                <g transform="matrix(54.1667,0,0,54.1667,10794.8,206.97)">
                </g>
                <text x="10767.2px" y="206.97px" style="font-family:'Roboto-Black', 'Roboto';font-weight:900;font-size:54.167px;">?</text>
            </g>
            <g transform="matrix(0.833134,0,0,1.54989,4053.42,-150.867)">
                <g transform="matrix(54.1667,0,0,54.1667,10794.8,206.97)">
                </g>
                <text x="10767.2px" y="206.97px" style="font-family:'Roboto-Black', 'Roboto';font-weight:900;font-size:54.167px;">?</text>
            </g>
            <g transform="matrix(0.833134,0,0,1.54989,4171.73,-150.867)">
                <g transform="matrix(54.1667,0,0,54.1667,10794.8,206.97)">
                </g>
                <text x="10767.2px" y="206.97px" style="font-family:'Roboto-Black', 'Roboto';font-weight:900;font-size:54.167px;">?</text>
            </g>
            <g transform="matrix(0.833134,0,0,1.54989,4290.03,-150.867)">
                <g transform="matrix(54.1667,0,0,54.1667,10794.8,206.97)">
                </g>
                <text x="10767.2px" y="206.97px" style="font-family:'Roboto-Black', 'Roboto';font-weight:900;font-size:54.167px;">?</text>
            </g>
            <g transform="matrix(0.833134,0,0,1.54989,4408.34,-150.867)">
                <g transform="matrix(54.1667,0,0,54.1667,10794.8,206.97)">
                </g>
                <text x="10767.2px" y="206.97px" style="font-family:'Roboto-Black', 'Roboto';font-weight:900;font-size:54.167px;">?</text>
            </g>
            <g transform="matrix(0.833134,0,0,1.54989,4526.64,-150.867)">
                <g transform="matrix(54.1667,0,0,54.1667,10794.8,206.97)">
                </g>
                <text x="10767.2px" y="206.97px" style="font-family:'Roboto-Black', 'Roboto';font-weight:900;font-size:54.167px;">?</text>
            </g>
            <g transform="matrix(0.833134,0,0,1.54989,3935.14,-627.739)">
                <g transform="matrix(41.6667,0,0,41.6667,10795.2,592.966)">
                </g>
                <text x="10766.8px" y="592.966px" style="font-family:'Roboto-Black', 'Roboto';font-weight:900;font-size:41.667px;">A</text>
            </g>
            <g transform="matrix(0.833134,0,0,1.54989,4053.44,-627.739)">
                <g transform="matrix(41.6667,0,0,41.6667,10794.4,592.966)">
                </g>
                <text x="10767.5px" y="592.966px" style="font-family:'Roboto-Black', 'Roboto';font-weight:900;font-size:41.667px;">B</text>
            </g>
            <g transform="matrix(0.833134,0,0,1.54989,4171.75,-627.739)">
                <g transform="matrix(41.6667,0,0,41.6667,10794.6,592.966)">
                </g>
                <text x="10767.3px" y="592.966px" style="font-family:'Roboto-Black', 'Roboto';font-weight:900;font-size:41.667px;">C</text>
            </g>
            <g transform="matrix(0.833134,0,0,1.54989,4290.05,-627.739)">
                <g transform="matrix(41.6667,0,0,41.6667,10794.4,592.966)">
                </g>
                <text x="10767.5px" y="592.966px" style="font-family:'Roboto-Black', 'Roboto';font-weight:900;font-size:41.667px;">D</text>
            </g>
            <g transform="matrix(0.833134,0,0,1.54989,4408.36,-627.739)">
                <g transform="matrix(41.6667,0,0,41.6667,10792.6,592.966)">
                </g>
                <text x="10769.3px" y="592.966px" style="font-family:'Roboto-Black', 'Roboto';font-weight:900;font-size:41.667px;">E</text>
            </g>
            <g transform="matrix(0.833134,0,0,1.54989,4526.66,-627.739)">
                <g transform="matrix(41.6667,0,0,41.6667,10792.4,592.966)">
                </g>
                <text x="10769.6px" y="592.966px" style="font-family:'Roboto-Black', 'Roboto';font-weight:900;font-size:41.667px;">F</text>
            </g>
        </g>
    </g>
</svg>
